HIERARCHY
ROOT mug3
{
	OFFSET 0.000000 0.000000 0.000000
	CHANNELS 6 Xposition Yposition Zposition Yrotation Xrotation Zrotation
	End Site
	{
		OFFSET 0.000000 0.000000 0.000000
	}
}
MOTION
Frames: 204
Frame Time: 0.008333334
2.026404 5.893206 3.408469 8.256715 -2.160645 0.628708 
2.033208 5.896694 3.405497 7.355375 -2.497620 0.693878 
2.038222 5.900186 3.402801 6.296189 -2.869873 0.822513 
2.041603 5.904063 3.399950 5.109258 -3.347412 1.109575 
2.043489 5.908209 3.396731 3.763456 -3.698212 1.445915 
2.043299 5.912637 3.394458 2.425670 -4.177063 1.952399 
2.042145 5.917342 3.390811 0.981483 -4.612549 2.588568 
2.037699 5.921935 3.387020 -0.480408 -4.947052 3.383053 
2.032494 5.927165 3.384546 -2.004486 -5.284027 4.330447 
2.025913 5.932308 3.381662 -3.413391 -5.530548 5.264874 
2.017378 5.937689 3.380104 -4.715942 -5.715210 6.456981 
2.007276 5.942728 3.379003 -5.897766 -5.736755 7.417046 
1.996399 5.946841 3.379712 -7.055756 -5.688416 8.589544 
1.984617 5.950201 3.381530 -8.012695 -5.563141 9.566069 
1.974571 5.953313 3.383492 -8.856506 -5.435822 10.646720 
1.964909 5.955901 3.385447 -9.569092 -5.409821 11.681110 
1.956464 5.958996 3.387386 -10.347600 -5.290283 12.333850 
1.947819 5.961690 3.389370 -11.057920 -5.096771 13.018040 
1.940995 5.965328 3.389422 -11.640440 -5.072418 13.431040 
1.934878 5.969457 3.390201 -12.193390 -5.052795 13.888370 
1.929537 5.974209 3.390044 -12.619380 -5.107483 14.169250 
1.923331 5.978791 3.390171 -13.131320 -5.205902 14.540050 
1.917657 5.982407 3.391551 -13.530910 -5.080963 14.896440 
1.911518 5.986597 3.392993 -13.984950 -5.160950 15.228910 
1.905652 5.989201 3.393466 -14.292910 -4.989075 15.445860 
1.899882 5.991825 3.395255 -14.514980 -4.969513 15.641200 
1.894862 5.994331 3.397290 -14.809050 -4.918976 16.129480 
1.889170 5.994613 3.399439 -14.899660 -4.725098 16.450030 
1.881866 5.998038 3.405756 -14.938390 -4.979553 16.516470 
1.879125 6.000903 3.407137 -15.058040 -5.010406 16.585000 
1.870266 5.999407 3.407043 -15.352260 -4.815887 17.271390 
1.863109 5.999135 3.405502 -15.669400 -4.775085 17.761310 
1.857345 5.998084 3.406406 -15.810270 -4.737762 17.987030 
1.852034 5.995978 3.406222 -15.491550 -4.855804 18.338840 
1.848583 5.994933 3.410366 -15.894900 -4.396912 18.538850 
1.843541 5.992837 3.410044 -15.518710 -4.317047 18.821660 
1.838465 5.991580 3.409662 -15.457400 -3.987366 18.984380 
1.833478 5.990320 3.409704 -15.563420 -3.920959 19.220970 
1.825797 5.988745 3.410232 -15.743500 -3.844086 19.687720 
1.819015 5.987680 3.409930 -15.883820 -3.792969 20.027200 
1.812044 5.985175 3.409066 -16.191160 -3.590515 20.218550 
1.806408 5.981369 3.409993 -16.286560 -3.187439 20.698900 
1.801834 5.980511 3.409263 -16.658570 -3.243652 20.937140 
1.798640 5.979703 3.410280 -16.924710 -3.254333 21.017510 
1.795250 5.978555 3.410136 -17.330020 -3.130310 20.999180 
1.791569 5.978329 3.410738 -17.760040 -3.001953 21.068240 
1.787906 5.978196 3.411137 -18.215970 -2.845734 21.084320 
1.783592 5.978481 3.412402 -18.745670 -2.541504 21.135880 
1.778558 5.979029 3.414342 -19.362300 -2.157898 20.908030 
1.773663 5.979168 3.417266 -20.126100 -1.668060 20.759570 
1.767478 5.979240 3.420604 -21.364810 -1.077148 20.503150 
1.761294 5.978536 3.424933 -22.779940 -0.329346 20.211670 
1.753981 5.978257 3.430176 -24.397460 0.401582 19.845600 
1.746791 5.976543 3.435445 -26.228150 1.254825 19.391240 
1.736663 5.975482 3.439626 -28.523280 1.876078 19.002720 
1.729001 5.973028 3.446257 -30.430910 2.804446 18.329550 
1.723054 5.969311 3.453802 -32.066280 3.787009 17.875090 
1.714002 5.968386 3.458225 -34.186280 4.411630 17.332840 
1.707001 5.964670 3.465423 -35.687380 5.318429 17.028010 
1.696333 5.962486 3.471347 -37.626620 6.013683 16.478940 
1.687355 5.960341 3.476493 -39.468930 6.631826 16.169610 
1.678914 5.957027 3.481533 -41.270290 7.270168 15.653630 
1.668932 5.953910 3.484448 -43.244870 7.882649 14.728980 
1.659436 5.950332 3.487803 -45.224550 8.614056 13.926920 
1.648223 5.946614 3.489363 -47.445370 9.032525 13.212730 
1.635479 5.941795 3.492068 -49.924410 9.582879 12.307960 
1.622232 5.935066 3.492640 -52.343480 10.074980 11.316650 
1.609161 5.929209 3.494192 -54.684390 10.376630 10.593890 
1.596380 5.921650 3.494615 -56.690370 10.448430 9.561142 
1.584695 5.913208 3.494643 -58.478970 10.425640 8.761513 
1.569461 5.910669 3.497735 -60.288880 9.867734 9.556178 
1.563932 5.895711 3.495065 -61.142790 10.169040 7.264116 
1.555589 5.887000 3.495861 -62.218870 9.751373 7.151865 
1.546926 5.875916 3.493431 -63.240780 9.835480 6.219552 
1.541325 5.868248 3.494522 -63.878450 9.803847 6.159654 
1.536945 5.861341 3.493045 -64.441800 10.018830 5.880167 
1.533645 5.856158 3.493263 -65.017580 10.180260 5.928850 
1.530684 5.851691 3.491754 -65.649050 10.338640 5.918790 
1.523998 5.850462 3.492474 -66.742580 9.771785 6.821058 
1.523228 5.847527 3.490512 -67.308010 9.979074 6.892966 
1.525826 5.843321 3.484728 -67.521510 10.699150 6.241226 
1.520066 5.842995 3.484777 -68.405910 9.999446 6.999660 
1.523737 5.837254 3.479674 -68.471500 10.880320 5.778412 
1.520332 5.838051 3.480183 -68.862980 10.107700 6.670150 
1.521485 5.835711 3.477593 -68.930910 10.007440 6.583778 
1.524233 5.834129 3.476115 -68.883180 10.008520 6.481120 
1.530983 5.830112 3.471697 -68.740720 10.715700 5.550352 
1.534086 5.829143 3.470484 -68.969910 10.635070 5.480205 
1.534109 5.830957 3.471938 -69.512730 9.907102 6.274358 
1.540693 5.829120 3.467551 -69.737490 10.577110 5.197594 
1.545487 5.828473 3.465189 -70.092440 10.839840 4.765435 
1.548202 5.829863 3.463084 -70.683690 10.733440 4.674651 
1.554146 5.831219 3.461827 -71.144410 10.770870 4.462922 
1.559632 5.833767 3.460442 -71.769650 10.654510 4.320382 
1.565526 5.838119 3.459420 -72.471890 10.244030 4.461876 
1.571623 5.842115 3.457743 -73.287230 9.989566 4.337744 
1.579350 5.846360 3.454847 -74.123540 9.664152 4.295247 
1.587542 5.851330 3.451192 -75.154390 9.197258 4.455994 
1.594897 5.855672 3.446600 -76.132110 8.910291 4.311750 
1.603391 5.859759 3.439936 -77.134430 8.769435 4.264868 
1.613368 5.864655 3.436912 -78.026120 8.467664 4.659666 
1.622727 5.869111 3.430970 -79.013120 8.145388 4.690226 
1.634094 5.873292 3.425312 -80.014370 7.892284 4.987402 
1.646734 5.877908 3.418405 -81.162780 7.511027 5.302459 
1.661441 5.882232 3.411283 -82.225650 7.223514 5.516662 
1.676638 5.886374 3.402458 -83.525970 6.818536 6.011405 
1.692206 5.890674 3.392753 -84.847020 6.423375 6.315163 
1.710258 5.895248 3.382160 -86.199100 6.066733 6.950214 
1.726859 5.897782 3.371238 -87.789790 5.763787 7.444937 
1.746041 5.902834 3.359842 -89.183230 5.198323 8.507510 
1.763237 5.903726 3.347462 -90.701540 4.930830 8.654135 
1.783877 5.906351 3.337316 -91.789670 4.483689 9.454921 
1.804099 5.908596 3.327506 -92.796880 4.017672 9.892602 
1.824284 5.911502 3.317854 -93.705840 3.435485 10.360510 
1.845520 5.914342 3.309575 -94.431730 2.840977 10.923030 
1.866238 5.917320 3.302075 -95.141750 2.193328 11.296210 
1.885751 5.920063 3.295160 -95.975460 1.652465 11.720820 
1.904457 5.923025 3.286932 -96.770260 1.169980 12.265280 
1.920169 5.923975 3.277137 -97.778320 0.903263 12.243490 
1.939327 5.928653 3.273831 -98.348510 0.364286 13.229070 
1.954913 5.929771 3.265757 -99.254520 0.203780 13.405720 
1.969109 5.932097 3.258119 -99.998690 0.100066 13.780020 
1.982945 5.935461 3.250033 -100.779700 -0.125153 14.344850 
1.995575 5.939477 3.242711 -101.548000 -0.217621 14.707060 
2.007087 5.943485 3.237159 -102.233000 -0.217651 14.935590 
2.017517 5.947966 3.230991 -102.883700 -0.253540 15.305880 
2.026983 5.951920 3.225068 -103.620400 -0.240845 15.482270 
2.034990 5.956079 3.220222 -104.362100 -0.171021 15.803360 
2.041213 5.960185 3.215100 -105.037900 -0.083649 16.138630 
2.047630 5.964242 3.210129 -105.679300 0.026337 16.343090 
2.052131 5.968749 3.204163 -106.371600 0.075591 16.656680 
2.055794 5.973069 3.198098 -107.013000 0.210404 17.025940 
2.058274 5.977287 3.192901 -107.509400 0.438189 17.160550 
2.059518 5.981925 3.188154 -108.003000 0.722761 17.402930 
2.058512 5.987169 3.183110 -108.482400 0.863083 17.635400 
2.056757 5.991410 3.179055 -108.898200 1.151537 17.899240 
2.051996 5.995760 3.175333 -109.405600 1.501519 18.013420 
2.046046 6.000511 3.172404 -109.756100 1.966608 18.052730 
2.038290 6.004244 3.169383 -110.160000 2.509689 17.993610 
2.028224 6.008026 3.167093 -110.559500 3.123757 18.062380 
2.015568 6.010959 3.164830 -110.905600 3.941409 17.983980 
2.001273 6.013750 3.163001 -111.253500 4.783959 17.929990 
1.985545 6.015287 3.161930 -111.575100 5.788752 17.802520 
1.968233 6.015464 3.161427 -111.890900 6.726580 17.539970 
1.951248 6.014882 3.161300 -112.145100 7.753885 17.419990 
1.935021 6.013227 3.161179 -112.340900 8.782846 17.159480 
1.919840 6.011573 3.161061 -112.450400 9.683265 17.031020 
1.904447 6.009881 3.160830 -112.414200 10.407440 16.894580 
1.890799 6.008031 3.159639 -112.478700 11.137600 16.681060 
1.878030 6.007835 3.159419 -112.471100 11.774140 16.455500 
1.866046 6.006789 3.158724 -112.519600 12.308340 16.461390 
1.856905 6.006351 3.157553 -112.645000 12.785500 16.480630 
1.850556 6.006585 3.156476 -112.797100 13.113570 16.292310 
1.847893 6.008393 3.154711 -112.961700 13.171230 16.459860 
1.847799 6.011635 3.153806 -113.087200 13.165710 16.570850 
1.848557 6.016480 3.153697 -113.215000 13.040380 16.633600 
1.847996 6.021154 3.152078 -113.377200 12.906480 16.739400 
1.845383 6.025036 3.152072 -113.491700 13.225450 16.612830 
1.840170 6.029016 3.148677 -113.591500 13.594820 16.512830 
1.835320 6.031817 3.143456 -113.712600 14.055320 16.747090 
1.832060 6.033942 3.133672 -113.889300 14.586330 17.069560 
1.832073 6.034213 3.120647 -114.170800 14.939500 17.535360 
1.835132 6.035779 3.105489 -114.523100 15.374490 18.145250 
1.837577 6.036297 3.090557 -115.040700 15.687340 18.662460 
1.838444 6.037526 3.078278 -115.449500 16.293880 18.911670 
1.836412 6.037694 3.069827 -115.804300 16.836670 19.032720 
1.833438 6.038815 3.064857 -116.263900 17.335990 19.067270 
1.829769 6.041399 3.061998 -116.731300 18.016250 18.872090 
1.826626 6.045341 3.060084 -117.288200 18.629530 18.602070 
1.823835 6.050855 3.059273 -117.909700 19.101610 18.342730 
1.821849 6.056955 3.058998 -118.532800 19.611020 18.193170 
1.819511 6.063903 3.058483 -119.172100 20.102210 17.929220 
1.816775 6.070333 3.058165 -119.772700 20.607280 17.762080 
1.814631 6.078096 3.058357 -120.405500 21.155290 17.372820 
1.810695 6.088210 3.059344 -121.181200 21.516780 17.170050 
1.808496 6.099537 3.060733 -122.043900 21.621010 16.893950 
1.806343 6.112843 3.064714 -123.163300 21.916640 16.363220 
1.803993 6.127237 3.068848 -124.384700 22.059470 15.733100 
1.801530 6.142329 3.076252 -125.741900 22.245410 14.942470 
1.798476 6.157951 3.084973 -127.221200 22.417340 14.010130 
1.795684 6.174378 3.094604 -128.922400 22.295220 13.061670 
1.791886 6.190973 3.104968 -130.685800 22.340710 11.938080 
1.788656 6.207665 3.117361 -132.502700 22.215420 10.957520 
1.784765 6.223589 3.129276 -134.208800 21.906720 10.039380 
1.780298 6.239176 3.141358 -135.927400 21.707750 8.961088 
1.775238 6.253794 3.154224 -137.485300 21.340800 7.773046 
1.769598 6.268217 3.167801 -139.098400 20.826200 6.272829 
1.761551 6.282123 3.182008 -140.772800 20.164050 4.647685 
1.754182 6.294208 3.196672 -142.435000 19.122120 3.115995 
1.747445 6.305256 3.210554 -143.911600 18.480340 1.497110 
1.741869 6.313554 3.221934 -145.409700 17.654080 0.424398 
1.737677 6.320468 3.229160 -146.720700 17.250870 -0.517029 
1.735667 6.324432 3.232951 -147.979400 16.948540 -0.998505 
1.733217 6.326996 3.235288 -149.281000 16.696100 -1.156708 
1.731664 6.327384 3.237972 -150.506900 16.542730 -1.611633 
1.729767 6.327247 3.244515 -151.733100 16.194830 -1.972748 
1.727144 6.327419 3.250925 -152.972600 15.557790 -2.261230 
1.725480 6.326242 3.258109 -154.010300 14.932580 -2.650665 
1.724096 6.325872 3.264373 -154.916300 14.279760 -2.613098 
1.722716 6.325273 3.268723 -155.727400 13.600860 -2.580780 
1.721898 6.323789 3.274237 -156.365200 12.675880 -2.394897 
1.721752 6.321564 3.278871 -156.880800 11.973060 -2.248444 
1.721969 6.318052 3.284535 -157.345700 11.272600 -2.201447 
1.721948 6.313302 3.290019 -157.837300 10.446280 -2.091614 
